# xmcd
#
# Track frame offsets:
#	150
#	13125
#	30925
#	44775
#	63342
#	80197
#	94672
#	110445
#	126335
#	142285
#	163695
#	178862
#	194740
#	210780
#	227862
#	249120
#	267922
#	280740
#
# Disc length: 3929
#
# Revision: 1
# Processed by: cddbd v1.5.1PL0 Copyright (c) Steve Scherf et al.
# Submitted via: VisiTrax 2.9.5.180 - For more info visit www.synapsa.com
# Normalized: r0:DSETVAR1
#
DISCID=090f5712
DTITLE=Various Artist - CDX 184 March 1998
DYEAR=1998
DGENRE=
TTITLE0=Blake and Brian - Amnesia
TTITLE1=Allison Moorer - A soft place to fall
TTITLE2=Lee Ann Womack - Buckaroo
TTITLE3=LeAnn Rimes - Commitment
TTITLE4=Lisa Brokop - How do I let go
TTITLE5=Flying Burrito Brothers/Waylon Jennings - I ain't livin' long like this
TTITLE6=David Kersh - If I never stop loving you
TTITLE7=George Strait - I just want to dance with you
TTITLE8=Cactus Choir - It's your move
TTITLE9=Tim McGraw - One of these days
TTITLE10=Earl Thomas conley - Scared money never wins
TTITLE11=Suzy Bogguss - Somebody to love
TTITLE12=Clint Black - The shoes you're wearing
TTITLE13=Jason Sellers - This small divide
TTITLE14=George Jones - Wild irish rose
TTITLE15=Anita Cochran - Will you be here
TTITLE16=Dave Turner - Modern woman, primitive man
TTITLE17=Rhett Akins - Drivin' my life away
EXTD=
EXTT0=
EXTT1=
EXTT2=
EXTT3=
EXTT4=
EXTT5=
EXTT6=
EXTT7=
EXTT8=
EXTT9=
EXTT10=
EXTT11=
EXTT12=
EXTT13=
EXTT14=
EXTT15=
EXTT16=
EXTT17=
PLAYORDER=
